<?xml version="1.0" encoding="UTF-8"?>
<!-- Generator: Adobe Illustrator 16.0.0, SVG Export Plug-In . SVG Version: 6.00 Build 0) -->
<svg width="318" height="41.113" version="1.1" viewBox="0 0 318 41.113" xml:space="preserve" xmlns="http://www.w3.org/2000/svg"> <g transform="scale(1.6225)" fill="#bd181d"> <path d="m105.2 3.328c-1.253 5e-3 -2.943 0.976-2.956 2.201 2e-3 0.637 0.57 1.034 1.131 1.035 1.775-0.015 1.751-1.707 2.643-1.667 0.992 2e-3 1.51 0.933 1.512 1.825 0 1.2-0.771 2.223-1.764 2.812-0.992 0.559-2.082 0.715-3.209 0.715-1.752 0-3.515-0.377-5.285-0.378-2.763 1e-3 -5.813 2.091-5.818 5.094 3e-3 1.411 0.942 2.449 2.39 2.451 1.001 0 2.07-0.739 2.074-1.822-1e-3 -0.731-0.636-1.159-1.288-1.161-0.654 5e-3 -1.038 0.352-1.509 0.347-0.428-1e-3 -0.597-0.362-0.601-0.757 0-0.804 0.541-1.324 1.258-1.655 0.716-0.33 1.598-0.456 2.236-0.456 2.129 7e-3 3.995 0.832 3.997 3.211-9e-3 4.826-4.925 7.11-9.187 7.112-3.984-1e-3 -9.029-1.913-9.037-6.576-1e-3 -2.135 1.231-4.299 3.259-5.119 0.649 0.771 1.268 1.437 2.412 1.437 0.935 0 1.975-0.644 1.979-1.665-7e-3 -1.065-1.153-1.412-1.979-1.414-0.404 0-0.805 0.091-1.176 0.211-0.444-0.546-0.588-0.989-0.59-1.724 4e-3 -1.918 1.616-3.71 3.527-3.714 1.813-0.013 1.626 1.449 2.894 1.479 0.663-1e-3 1.254-0.561 1.256-1.256-0.015-1.299-1.724-1.601-2.702-1.604-3.244 1e-3 -6.04 2.732-6.041 6.038 0 0.522 0.06 0.927 0.15 1.381-2.96 1.466-5.155 4.584-5.156 7.931 5e-3 5.241 5.338 7.383 9.819 7.391 5.37-0.011 11.633-3.536 11.637-9.593 0-1.014-0.325-2.024-0.861-2.864 0.344 5e-3 0.709 0.031 1.053 0.031 3.353-7e-3 7.322-2.025 7.328-5.882-4e-3 -1.979-1.416-3.392-3.396-3.395z"/> <path d="m34.263 21.99c-0.195 1.162-0.661 1.703-1.413 1.704-0.464-3e-3 -0.74-0.18-0.878-0.551-0.138-0.376-0.213-1.265-0.212-2.647v-5.928c0-1.259-0.134-2.195-0.408-2.818-0.277-0.625-0.84-1.177-1.682-1.657-0.85-0.486-2.036-0.725-3.559-0.725-2.048 0-3.566 0.392-4.552 1.187-0.971 0.787-1.471 1.53-1.472 2.241 1e-3 0.716 0.405 1.098 1.153 1.099 0.85 1e-3 1.377-0.65 1.564-1.879 0.2-1.156 1.153-1.735 2.94-1.739 0.89 0 1.602 0.179 2.14 0.528 0.543 0.353 0.872 0.749 0.998 1.183 0.129 0.443 0.196 1.176 0.196 2.188v0.674l-2.744 1.114c-2.121 0.873-3.784 1.771-4.993 2.693-1.213 0.928-1.828 2.022-1.827 3.273-1e-3 0.958 0.368 1.739 1.099 2.322 0.728 0.582 1.599 0.873 2.604 0.873 0.789 0 1.679-0.219 2.671-0.651 0.97-0.421 2.039-1.044 3.207-1.867 0.15 0.812 0.457 1.433 0.922 1.857 0.484 0.441 1.141 0.661 1.96 0.661h0.02c1.905 0 2.94-1.068 3.04-3.12l3e-3 -0.065h-0.769zm-5.185-0.484c-0.911 0.729-1.732 1.276-2.463 1.64-0.737 0.368-1.381 0.549-1.93 0.549-0.62 0-1.114-0.222-1.499-0.668-0.384-0.446-0.577-1.036-0.578-1.777-1e-3 -1.86 1.513-3.42 4.596-4.672l1.874-0.756z"/> <path d="m74.213 9.368c-0.889 0-1.795 0.364-2.716 1.087-0.843 0.66-1.474 1.473-1.889 2.428-0.051-1.424-0.241-2.582-0.567-3.477l-0.021-0.054-0.055 0.018c-1.806 0.572-3.265 0.924-4.377 1.055l-0.054 6e-3v0.92h0.437c0.759-1e-3 1.28 0.113 1.558 0.32 0.285 0.212 0.445 0.503 0.486 0.889 0.042 0.395 0.063 1.383 0.063 2.958v4.137c0 1.693-0.031 2.725-0.089 3.07-0.058 0.343-0.228 0.603-0.52 0.792-0.286 0.188-0.786 0.288-1.498 0.287h-0.437v0.944h7.912v-0.944h-0.565c-0.764 1e-3 -1.29-0.11-1.569-0.312-0.286-0.205-0.448-0.495-0.489-0.889-0.041-0.398-0.063-1.385-0.063-2.948v-2.615c0-1.311 0.102-2.339 0.303-3.083 0.2-0.738 0.651-1.455 1.362-2.149 0.712-0.694 1.318-1.031 1.803-1.03 0.396 2e-3 0.695 0.27 0.909 0.856 0.312 0.89 0.786 1.366 1.419 1.366 0.349 0 0.653-0.135 0.895-0.396 0.243-0.26 0.366-0.577 0.365-0.936 1e-3 -0.532-0.235-1.049-0.695-1.546-0.467-0.504-1.108-0.756-1.908-0.754z"/> <path d="m61.412 23.51c-0.29-0.196-0.455-0.479-0.502-0.871-0.047-0.399-0.071-1.404-0.071-3.002v-9.678h-5.243v0.945h0.436c0.842-2e-3 1.389 0.133 1.633 0.368 0.26 0.249 0.403 0.535 0.438 0.867 0.035 0.339 0.054 1.315 0.054 2.914v3.312c0 1.248-0.153 2.205-0.453 2.866-0.299 0.662-0.863 1.294-1.694 1.894-0.831 0.597-1.696 0.893-2.604 0.893-0.636 0-1.191-0.167-1.671-0.5-0.482-0.335-0.776-0.719-0.891-1.156-0.118-0.442-0.179-1.17-0.179-2.17v-10.233h-5.081v0.944h0.061c0.843-1e-3 1.419 0.093 1.716 0.262 0.3 0.172 0.475 0.429 0.534 0.789 0.058 0.365 0.088 1.403 0.088 3.099v4.996c1e-3 1.306 0.141 2.285 0.427 2.942 0.286 0.659 0.813 1.216 1.574 1.667 0.762 0.454 1.639 0.681 2.628 0.681 1.144 0 2.192-0.289 3.139-0.868 0.899-0.55 1.703-1.357 2.41-2.416 0.037 1.513 0.237 2.588 0.614 3.236l0.016 0.03h0.25c0.845-0.357 2.166-0.551 3.977-0.573l0.06-1e-3v-0.943h-0.06c-0.784 1e-3 -1.322-0.105-1.606-0.294z"/> <path d="m16.023 23.533c-0.302-0.178-0.476-0.435-0.535-0.79-0.058-0.358-0.09-1.396-0.089-3.089v-4.585c-1e-3 -1.363-0.107-2.403-0.324-3.125-0.219-0.725-0.71-1.338-1.464-1.834-0.758-0.497-1.727-0.742-2.903-0.742-1.035 0-2.029 0.253-2.979 0.759-0.912 0.485-1.785 1.211-2.616 2.17-0.044-1.208-0.198-2.17-0.464-2.891l-0.015-0.038h-0.525c-1.393 0.398-2.739 0.665-4.054 0.806l-0.055 6e-3v0.94h0.062c0.854-1e-3 1.436 0.095 1.733 0.269 0.302 0.178 0.48 0.434 0.544 0.784 0.064 0.353 0.097 1.392 0.097 3.1v4.377c1e-3 1.79-0.04 2.864-0.115 3.188-0.075 0.325-0.26 0.56-0.568 0.721-0.304 0.16-0.872 0.247-1.691 0.246h-0.062v0.944h7.554v-0.944h-0.06c-0.855 1e-3 -1.438-0.096-1.733-0.271-0.303-0.178-0.481-0.436-0.545-0.79-0.064-0.358-0.098-1.396-0.098-3.089v-5.963c0.698-1.025 1.439-1.794 2.221-2.305 0.785-0.514 1.606-0.769 2.466-0.769 0.753 0 1.368 0.187 1.852 0.56 0.487 0.376 0.781 0.802 0.891 1.282 0.111 0.485 0.169 1.311 0.168 2.468v4.727c1e-3 1.635-0.017 2.622-0.053 2.948-0.034 0.322-0.175 0.599-0.429 0.84-0.237 0.231-0.788 0.362-1.642 0.361h-0.401v0.944h7.608v-0.944h-0.061c-0.843 1e-3 -1.419-0.096-1.715-0.271z"/> <path d="m44.297 22.506c-0.627 0.968-1.353 1.438-2.187 1.439-0.428 0-0.829-0.138-1.208-0.418-0.378-0.278-0.622-0.643-0.739-1.103s-0.178-1.375-0.178-2.734v-8.805h4.424v-0.945h-4.424v-4.593h-0.685l-8e-3 0.051c-0.212 1.438-0.703 2.546-1.467 3.334-0.766 0.791-1.624 1.194-2.584 1.217l-0.06 3e-3v0.935h2.122v8.25c0 1.71 0.081 2.905 0.244 3.595 0.164 0.696 0.58 1.303 1.24 1.817 0.661 0.515 1.43 0.773 2.302 0.773 0.751 0 1.494-0.203 2.223-0.607 0.734-0.407 1.29-1.011 1.665-1.81l0.023-0.051-0.672-0.397z"/> <path d="m175.64 21.365c-0.904 1.929-2.418 2.882-4.577 2.885-1.589-2e-3 -2.767-0.635-3.566-1.911-0.798-1.275-1.202-3.199-1.202-5.768 0-0.334 0.023-0.838 0.068-1.512h10.251l-3e-3 -0.065c-0.061-1.38-0.624-2.665-1.684-3.846-1.065-1.188-2.574-1.782-4.51-1.782-2.061 0-3.785 0.778-5.156 2.323-1.375 1.546-2.062 3.488-2.062 5.815 0 1.646 0.354 3.049 1.067 4.205 0.709 1.154 1.623 2.048 2.738 2.681 1.114 0.633 2.301 0.947 3.555 0.947 1.35 0 2.599-0.346 3.744-1.038 1.146-0.691 1.916-1.658 2.304-2.89l0.024-0.079h-0.977zm-5.366-11.088c0.885 0 1.623 0.284 2.229 0.852 0.603 0.566 0.904 1.36 0.904 2.401 0 0.197-0.016 0.421-0.045 0.672h-6.915c0.435-2.636 1.697-3.922 3.827-3.925z"/> <path d="m148.41 3.901h5e-3c0.526 0 0.979-0.194 1.348-0.575 0.367-0.379 0.555-0.845 0.554-1.384 1e-3 -0.528-0.187-0.988-0.554-1.369-0.369-0.379-0.823-0.573-1.353-0.573-0.528 0-0.985 0.194-1.358 0.573-0.375 0.38-0.565 0.841-0.565 1.369 0 0.539 0.188 1.005 0.565 1.385 0.373 0.381 0.83 0.575 1.358 0.574z"/> <path d="m159.68 23.491c-0.284-0.205-0.444-0.496-0.485-0.888-0.041-0.399-0.063-1.386-0.063-2.947v-19.656h-0.453l-0.025 6e-3c-0.359 0.163-1.031 0.33-2.01 0.496-0.979 0.167-1.829 0.25-2.549 0.25h-0.062v0.945h0.062c1.055-1e-3 1.705 0.205 1.955 0.575 0.259 0.371 0.402 1.341 0.4 2.876v14.508c0 1.692-0.031 2.721-0.089 3.069-0.06 0.344-0.228 0.602-0.519 0.792-0.286 0.185-0.787 0.287-1.498 0.285h-0.563v0.944h7.948v-0.944h-0.491c-0.759 3e-3 -1.281-0.109-1.558-0.311z"/> <path d="m142.27 21.365c-0.904 1.929-2.418 2.882-4.577 2.885-1.588-2e-3 -2.767-0.635-3.565-1.911-0.799-1.275-1.203-3.199-1.203-5.768 0-0.334 0.022-0.838 0.067-1.512h10.251l-2e-3 -0.065c-0.061-1.38-0.623-2.665-1.684-3.846-1.064-1.188-2.574-1.782-4.512-1.782-2.06 0-3.783 0.778-5.154 2.323-1.375 1.546-2.062 3.488-2.062 5.815 0 1.646 0.354 3.049 1.068 4.204 0.71 1.155 1.623 2.049 2.737 2.682 1.115 0.633 2.301 0.947 3.555 0.947 1.35 0 2.6-0.346 3.744-1.038 1.146-0.691 1.916-1.658 2.304-2.89l0.024-0.079h-0.976zm-5.367-11.088c0.885 0 1.624 0.284 2.229 0.852 0.602 0.566 0.905 1.36 0.905 2.401 0 0.197-0.015 0.421-0.047 0.672h-6.913c0.435-2.636 1.697-3.922 3.826-3.925z"/> <path d="m150.63 23.491c-0.285-0.205-0.449-0.496-0.496-0.888-0.047-0.399-0.07-1.386-0.07-2.947v-10.29h-0.455l-0.02 4e-3c-1.164 0.416-2.808 0.733-4.93 0.947l-0.055 5e-3v0.939h0.544c0.666 0 1.132 0.049 1.386 0.141 0.247 0.087 0.451 0.309 0.609 0.682 0.152 0.358 0.238 1.413 0.236 3.128v4.444c0 1.633-0.021 2.624-0.062 2.955-0.041 0.327-0.183 0.604-0.429 0.84-0.231 0.225-0.774 0.354-1.615 0.352h-0.67v0.944h8.02v-0.944h-0.437c-0.757 2e-3 -1.28-0.11-1.556-0.312z"/> <path d="m127.03 23.55c-0.308-0.166-0.487-0.417-0.55-0.771-0.064-0.359-0.098-1.406-0.098-3.122v-4.049c0-1.651-0.119-2.845-0.361-3.591-0.243-0.751-0.771-1.381-1.574-1.889-0.807-0.508-1.818-0.762-3.031-0.762-1.074 0-2.061 0.254-2.959 0.761-0.854 0.481-1.627 1.19-2.318 2.123v-12.25h-0.438c-1.242 0.502-2.775 0.753-4.621 0.752h-0.06v0.945h0.06c1.059-1e-3 1.711 0.202 1.967 0.566 0.264 0.364 0.41 1.302 0.41 2.776v14.616c0 1.633-0.023 2.624-0.063 2.955-0.041 0.327-0.183 0.604-0.431 0.84-0.229 0.225-0.777 0.354-1.631 0.352h-0.438v0.944h7.572v-0.944h-0.061c-0.818 2e-3 -1.381-0.102-1.67-0.285-0.296-0.19-0.465-0.459-0.518-0.826-0.053-0.373-0.08-1.392-0.08-3.035v-5.862c0.556-1.072 1.199-1.876 1.927-2.41 0.729-0.534 1.552-0.803 2.472-0.803 0.791 0 1.442 0.189 1.963 0.562 0.521 0.376 0.846 0.845 0.987 1.416 0.142 0.574 0.213 1.474 0.213 2.688v4.408c0 1.621-0.022 2.605-0.063 2.938-0.039 0.325-0.182 0.606-0.43 0.85-0.229 0.229-0.783 0.36-1.648 0.358h-0.402v0.944h7.697v-0.944h-0.06c-0.867 4e-3 -1.459-0.087-1.763-0.251z"/> <path d="m195.93 23.803c-0.842 2e-3 -1.418-0.096-1.715-0.27-0.301-0.177-0.477-0.434-0.535-0.791-0.057-0.359-0.088-1.394-0.088-3.086v-4.586c0-1.365-0.107-2.405-0.324-3.125-0.219-0.726-0.711-1.338-1.465-1.833-0.758-0.498-1.727-0.746-2.902-0.746-1.035 0-2.029 0.254-2.979 0.76-0.914 0.487-1.783 1.211-2.615 2.17-0.045-1.208-0.198-2.17-0.465-2.89l-0.015-0.04h-0.526c-1.393 0.401-2.737 0.667-4.053 0.807l-0.055 7e-3v0.939h0.061c0.854-1e-3 1.438 0.095 1.733 0.271 0.304 0.177 0.479 0.433 0.544 0.781 0.064 0.354 0.098 1.395 0.098 3.103v4.376c0 1.791-0.041 2.862-0.115 3.187-0.075 0.325-0.262 0.562-0.569 0.723-0.304 0.158-0.871 0.246-1.69 0.244h-0.061v0.944h7.555v-0.944h-0.062c-0.854 2e-3 -1.438-0.096-1.733-0.27-0.303-0.178-0.48-0.435-0.545-0.791-0.064-0.359-0.097-1.394-0.097-3.086v-5.964c0.696-1.027 1.438-1.795 2.22-2.306 0.785-0.515 1.605-0.77 2.467-0.77 0.754 0 1.367 0.188 1.852 0.561 0.486 0.377 0.781 0.803 0.891 1.281 0.112 0.487 0.169 1.312 0.169 2.467v4.73c0 1.633-0.019 2.621-0.054 2.947-0.035 0.319-0.176 0.597-0.43 0.84-0.236 0.229-0.787 0.361-1.642 0.359h-0.401v0.944h7.608v-0.944h-0.062z"/> </g> </svg>
